<?xml version="1.0" encoding="utf-8"?>
<!-- Generator: Adobe Illustrator 16.0.0, SVG Export Plug-In . SVG Version: 6.00 Build 0)  -->
<!DOCTYPE svg PUBLIC "-//W3C//DTD SVG 1.1//EN" "http://www.w3.org/Graphics/SVG/1.1/DTD/svg11.dtd">
<svg version="1.1" id="Layer_1" xmlns="http://www.w3.org/2000/svg" xmlns:xlink="http://www.w3.org/1999/xlink" x="0px" y="0px"
	 width="257.83px" height="187.275px" viewBox="0 0 257.83 187.275" enable-background="new 0 0 257.83 187.275"
	 xml:space="preserve">
<g>
	<path d="M95.891,92.727c-1.799,2.482-4.316,5.558-7.553,9.227c-0.936,1.079-2.195,2.932-3.777,5.558
		c-1.583,2.627-3.525,5.846-5.827,9.657c-0.792,1.512-1.618,3.346-2.481,5.504c0,0.432,0.286,0.9,0.863,1.402
		c2.158-0.646,4.801-2.535,7.932-5.665c3.129-3.129,6.852-7.463,11.168-13.003c4.46-5.898,7.77-10.916,9.928-15.054
		c2.158-4.136,3.238-7.462,3.238-9.981c0-0.359-0.146-0.898-0.432-1.619c-1.08,1.08-2.412,2.339-3.994,3.777
		c-1.582,1.439-3.453,3.021-5.611,4.748C98.84,88.429,97.689,90.245,95.891,92.727z"/>
	<path d="M150.2,0.775c-0.231-0.324-0.516-0.569-0.828-0.775c0.601,1.008,0.905,2.473,0.905,4.402c0,3.094-0.215,6.043-0.646,8.849
		s-1.225,5.433-2.375,7.877c-0.215,0.504-0.395,1.259-0.539,2.266c-0.145,1.008-0.287,2.23-0.432,3.669
		c-0.072,1.008-0.342,1.979-0.809,2.914c-0.469,0.936-1.063,1.799-1.781,2.59c0,0.504-0.072,1.098-0.215,1.781
		c-0.146,0.684-0.289,1.494-0.432,2.428l-1.512,1.942c-0.145,0.432-0.215,0.954-0.215,1.564c0,0.612,0,1.241,0,1.889
		c0,0.432-0.254,1.278-0.756,2.536c-0.504,1.259-1.26,3.04-2.266,5.341c-1.152,2.446-2.07,4.389-2.752,5.827
		c-0.686,1.44-1.063,2.338-1.133,2.698c-0.289,0.361-0.666,0.936-1.135,1.727c-0.467,0.792-1.023,1.691-1.672,2.698l0.324,2.374
		l-6.906,24.82c0,2.734,0.035,5.071,0.107,7.014c0.07,1.942,0.287,3.49,0.648,4.641c0.359,1.224,0.951,2.716,1.779,4.478
		c0.826,1.764,1.889,3.652,3.184,5.665c0.791,1.368,1.727,2.357,2.807,2.968c1.078,0.612,2.229,0.917,3.453,0.917
		c1.365,0,2.75-0.377,4.154-1.133c1.379-0.742,2.775-1.891,4.191-3.435c-0.014-0.024-0.023-0.048-0.037-0.072l0.971-0.863
		c0.072-0.791,0.576-1.727,1.512-2.806s2.266-2.337,3.992-3.777c1.078-0.79,2.211-1.546,3.398-2.266
		c1.188-0.719,2.32-1.511,3.4-2.374c4.531-3.885,8.918-7.624,13.164-11.223c2.445-2.158,4.893-4.01,7.338-5.558
		c0.759-0.48,1.5-0.92,2.231-1.341c0-0.247,0-0.502,0-0.744c0-0.61,0.07-1.133,0.215-1.564l1.512-1.942
		c0.143-0.934,0.286-1.744,0.432-2.428c0.143-0.683,0.215-1.277,0.215-1.781c0.719-0.791,1.313-1.654,1.781-2.59
		c0.467-0.934,0.736-1.905,0.809-2.914c0.145-1.438,0.287-2.661,0.432-3.669c0.145-1.007,0.324-1.762,0.54-2.266
		c1.149-2.445,1.942-5.072,2.374-7.877s0.647-5.755,0.647-8.849c0-1.942-0.307-3.416-0.917-4.424
		c-0.234-0.385-0.535-0.674-0.869-0.912"/>
	<path d="M63.139,22.961c-0.181-0.208-0.39-0.379-0.6-0.547c-0.04-0.05-0.068-0.113-0.11-0.162c-0.18-0.208-0.388-0.378-0.598-0.546
		c-0.041-0.051-0.069-0.115-0.111-0.164c-0.181-0.208-0.389-0.378-0.599-0.546c-0.04-0.05-0.068-0.114-0.11-0.162
		c-0.244-0.281-0.518-0.522-0.816-0.73c0.8,1.068,1.219,2.548,1.219,4.478c0,1.656-0.487,3.831-1.461,6.529
		c-0.975,2.697-1.532,4.731-1.676,6.097c0.143,0.288,0.336,0.594,0.584,0.917c0.248,0.324,0.619,0.702,1.114,1.133
		c0.425,0.288,0.726,0.774,0.901,1.457c0.178,0.685,0.268,1.529,0.268,2.536c0,4.316-0.197,7.645-0.592,9.981
		c-0.395,2.339-1.022,3.544-1.883,3.615l-7.313,1.511c-0.146,0.72-0.325,1.602-0.542,2.644c-0.215,1.044-0.504,2.25-0.864,3.615
		c-1.226,3.598-2.595,8.166-4.109,13.704c-1.514,5.541-3.208,12.086-5.083,19.641c-1.155,6.043-2.039,10.936-2.65,14.676
		c-0.614,3.741-0.92,6.258-0.92,7.553c0,1.152,0.18,2.016,0.54,2.59c0.359,0.577,0.899,0.863,1.618,0.863
		c0.432,0,1.996-1.042,4.695-3.129c2.666-2.063,6.375-5.114,11.118-9.146l-0.058-0.134l0.646-0.755l0.324-1.08
		c1.295-1.581,2.411-2.822,3.346-3.723c0.934-0.898,1.654-1.6,2.158-2.104c0.359-0.359,1.149-0.827,2.373-1.403
		c1.223-0.575,2.877-1.295,4.965-2.158l1.402-0.863c0.502-0.791,1.402-1.942,2.697-3.453s2.842-3.237,4.641-5.18
		c0.359-0.432,0.898-0.899,1.619-1.403c0.718-0.502,1.473-1.149,2.266-1.941c1.727-1.654,3.453-3.363,5.18-5.126
		s3.346-3.507,4.855-5.233c0.648-0.648,1.979-1.816,3.993-3.508c1.362-1.144,3.064-2.601,5.087-4.354
		c0.499-1.719,0.759-3.182,0.759-4.367c0-2.086-0.468-3.669-1.402-4.748"/>
	<path d="M249.258,146.979c-0.095,0.083-0.18,0.16-0.272,0.242"/>
	<path d="M249.967,147.688"/>
	<path d="M251.113,149.349c-0.143-0.311-0.286-0.624-0.437-0.951"/>
	<path d="M236.496,134.215c-0.095,0.083-0.18,0.16-0.273,0.243c-0.143-0.312-0.286-0.625-0.437-0.952
		c-0.095,0.083-0.18,0.16-0.272,0.242c-0.143-0.311-0.286-0.624-0.437-0.951c-0.095,0.083-0.18,0.16-0.272,0.242
		c-0.143-0.311-0.286-0.625-0.437-0.951c-0.095,0.083-0.18,0.16-0.272,0.242c-0.019-0.04-0.037-0.081-0.056-0.121
		c0.736-0.37,1.472-0.753,2.208-1.154c1.582-0.863,3.165-1.654,4.748-2.375c2.374-1.365,4.154-2.859,5.342-4.478
		c1.187-1.619,1.78-3.47,1.78-5.558v-5.936c-0.146-0.863-0.522-1.581-1.133-2.158c-0.081-0.076-0.175-0.134-0.262-0.199
		c-0.133-0.18-0.279-0.352-0.447-0.51c-0.081-0.076-0.175-0.134-0.263-0.2c-0.133-0.18-0.278-0.351-0.446-0.509
		c-0.081-0.076-0.176-0.135-0.264-0.201c-0.132-0.179-35.024-35.095-35.191-35.253c-0.081-0.076-0.175-0.134-0.263-0.2
		c-0.132-0.179-0.278-0.35-0.446-0.508c-0.081-0.076-0.175-0.134-0.263-0.2c-0.132-0.18-0.278-0.351-0.446-0.509
		c-0.081-0.076-0.175-0.134-0.263-0.2c-0.132-0.18-0.278-0.351-0.446-0.509c-0.144-0.135-0.301-0.252-0.467-0.355
		c0.298,0.444,0.505,0.944,0.6,1.514v5.935c0,2.088-0.594,3.938-1.779,5.558c-1.188,1.618-2.969,3.112-5.342,4.478
		c-1.584,0.721-3.166,1.512-4.748,2.375c-1.584,0.863-3.166,1.655-4.748,2.373c-0.576,0.721-2.105,2.069-4.586,4.047
		c-2.482,1.979-5.846,4.623-10.09,7.932c-1.943,1.511-3.561,2.859-4.855,4.047c-1.295,1.187-2.195,2.141-2.699,2.859
		c-0.719,1.367-1.277,2.878-1.672,4.532c-0.396,1.655-0.594,3.562-0.594,5.72c0,1.655,0.252,3.075,0.756,4.262
		c0.502,1.188,1.258,2.143,2.266,2.859c0.719,0.506,1.709,1.01,2.967,1.512c1.26,0.504,2.824,1.008,4.695,1.51
		c1.078-0.432,2.498-0.844,4.262-1.24c1.762-0.395,3.723-0.918,5.881-1.564c2.445-1.438,4.945-2.949,7.5-4.533
		c2.553-1.581,5.09-3.2,7.607-4.855c0.359-0.216,0.811-0.448,1.35-0.701c0.539-0.252,1.096-0.629,1.672-1.133
		c0.719-0.935,1.709-2.014,2.969-3.238c1.258-1.222,2.787-2.625,4.586-4.208c2.877,6.259,4.316,9.568,4.316,9.928
		c-2.662,2.158-5.361,4.37-8.094,6.638c-2.734,2.266-5.863,4.119-9.389,5.557c-1.15,0.936-2.121,1.799-2.912,2.59
		c-3.6,3.598-7.789,6.313-12.572,8.146c-4.785,1.836-10.234,2.752-16.348,2.752c-1.367,0-2.59-0.107-3.67-0.324
		c-1.078-0.215-1.979-0.504-2.697-0.863c-2.158-1.439-3.992-2.697-5.504-3.775c-1.582-1.15-2.914-2.248-3.992-3.291
		c-1.08-1.043-1.871-2.033-2.375-2.969c-0.646-1.006-1.096-2.229-1.348-3.668s-0.379-3.201-0.379-5.289
		c0-0.574,0.182-1.51,0.541-2.805c0.342-1.233,0.516-2.098,0.533-2.613c-0.395,0.277-1.117,0.973-2.207,2.127
		c-1.188,1.26-2.752,3.04-4.693,5.342c-1.152,1.367-2.572,2.357-4.264,2.969c-1.689,0.611-3.76,0.916-6.203,0.916
		c-5.396,0-9.785-1.402-13.166-4.209c-3.383-2.805-5.756-7.014-7.121-12.625c-0.289-1.15-0.541-2.158-0.756-3.021
		c-0.217-0.863-0.432-1.654-0.648-2.374c-0.504-1.366-1.367-2.841-2.59-4.425c-0.504,0.721-0.9,1.26-1.187,1.619
		c-0.863,0.576-1.817,1.402-2.86,2.482c-1.043,1.078-2.104,2.446-3.183,4.1c-0.216,0.721-0.612,1.603-1.187,2.645
		c-0.577,1.043-1.367,2.284-2.375,3.723c-2.303,2.662-4.64,5.342-7.014,8.039c-2.374,2.699-4.748,5.342-7.122,7.932
		c-3.237,3.598-6.224,6.242-8.956,7.932c-2.735,1.689-5.109,2.535-7.123,2.535c-3.598,0-6.258-0.846-7.984-2.535
		s-2.59-4.334-2.59-7.932c0-1.654,0.611-3.975,1.834-6.959c1.223-2.985,1.834-5.198,1.834-6.638l-0.617-1.646
		c-0.714,0.775-1.691,1.681-2.943,2.725c-1.295,1.079-2.843,2.23-4.641,3.453c-0.719,0.793-1.618,1.674-2.697,2.645
		s-2.266,2.104-3.561,3.398c-1.295,1.439-2.573,2.879-3.832,4.316c-1.259,1.439-2.535,2.844-3.83,4.209
		c-1.727,1.869-3.418,3.219-5.072,4.047c-1.655,0.826-3.201,1.24-4.64,1.24c-2.582,0-4.615-0.633-6.119-1.875
		c0.018,0.021,0.032,0.048,0.05,0.069c0.246,0.297,0.52,0.563,0.806,0.813c0.22,0.255,0.458,0.489,0.709,0.709
		c0.22,0.255,0.458,0.489,0.709,0.709c0.22,0.255,0.458,0.489,0.709,0.708c0.219,0.255,0.456,0.488,0.706,0.707
		c0.222,0.258,0.462,0.494,0.716,0.716c0.219,0.254,0.457,0.488,0.707,0.706c0.22,0.256,0.457,0.489,0.708,0.709
		c0.22,0.255,30.952,30.983,31.206,31.204c0.217,0.252,0.451,0.483,0.699,0.699c0.222,0.259,0.462,0.495,0.716,0.716
		c0.219,0.255,0.457,0.489,0.707,0.708c1.547,1.797,3.867,2.702,6.971,2.702c1.438,0,2.984-0.415,4.64-1.241
		c1.654-0.827,3.345-2.177,5.072-4.046c1.295-1.366,2.571-2.77,3.831-4.209c1.258-1.438,2.536-2.877,3.831-4.316
		c0.423-0.423,0.83-0.821,1.229-1.21c0.034,0.034,0.063,0.075,0.097,0.108c0.101,0.099,0.216,0.186,0.324,0.278
		c0.126,0.146,0.248,0.297,0.385,0.431c0.101,0.099,0.215,0.185,0.322,0.277c0.126,0.146,0.249,0.297,0.387,0.432
		c0.101,0.099,0.215,0.185,0.322,0.277c0.126,0.146,0.249,0.297,0.387,0.432c0.1,0.098,0.213,0.183,0.319,0.274
		c0.127,0.147,0.251,0.3,0.39,0.436c0.101,0.099,0.216,0.185,0.324,0.278c0.126,0.146,0.248,0.297,0.385,0.431
		c0.101,0.099,0.216,0.185,0.323,0.277c0.126,0.146,6.273,6.286,6.378,6.378c0.127,0.147,0.251,0.3,0.39,0.436
		c0.101,0.099,0.216,0.185,0.323,0.277c0.126,0.146,0.249,0.297,0.386,0.432c0.101,0.099,0.215,0.185,0.323,0.277
		c0.126,0.146,0.249,0.297,0.386,0.432c1.727,1.689,4.387,2.535,7.985,2.535c2.013,0,4.387-0.846,7.122-2.535
		c2.733-1.689,5.719-4.334,8.957-7.932c2.374-2.59,4.748-5.233,7.122-7.932c2.374-2.697,4.711-5.377,7.014-8.039
		c1.007-1.438,1.797-2.68,2.374-3.723c0.575-1.042,0.971-1.924,1.187-2.645c0.561-0.859,1.117-1.638,1.667-2.342
		c0.084,0.083,0.175,0.157,0.261,0.239c0.23,0.244,0.467,0.479,0.708,0.708c0.23,0.245,0.468,0.481,0.71,0.711
		c0.23,0.244,10.394,10.406,10.634,10.634c0.229,0.244,0.466,0.479,0.707,0.707c0.231,0.246,0.47,0.483,0.713,0.714
		c0.231,0.245,0.469,0.48,0.711,0.71c0.227,0.241,0.459,0.473,0.697,0.698c0.489,0.52,0.994,1.017,1.535,1.465
		c3.381,2.807,7.77,4.209,13.166,4.209c2.444,0,4.514-0.306,6.204-0.917c1.69-0.61,3.111-1.601,4.263-2.968
		c0.009-0.011,0.017-0.02,0.025-0.029c0.046,0.044,0.098,0.09,0.145,0.134c0.174,0.183,0.347,0.365,0.539,0.551
		c0.049,0.048,0.106,0.097,0.156,0.145c0.179,0.188,0.356,0.375,0.554,0.565c0.051,0.049,0.109,0.1,0.161,0.149
		c0.177,0.186,0.352,0.37,0.548,0.56c0.051,0.049,4.056,4.063,4.254,4.255c0.054,0.053,0.117,0.106,0.172,0.159
		c0.174,0.182,0.346,0.363,0.538,0.549c0.05,0.048,0.107,0.099,0.159,0.146c0.177,0.187,0.354,0.373,0.55,0.563
		c0.048,0.047,0.104,0.096,0.153,0.143c0.179,0.188,0.357,0.376,0.556,0.567c0.052,0.051,0.113,0.103,0.166,0.154
		c0.175,0.184,0.35,0.367,0.543,0.555c0.051,0.05,0.11,0.101,0.162,0.15c0.176,0.185,0.352,0.37,0.547,0.559
		c1.079,1.043,2.41,2.141,3.992,3.291c1.512,1.079,3.346,2.337,5.504,3.776c0.719,0.359,1.619,0.648,2.697,0.863
		c1.08,0.217,2.303,0.324,3.67,0.324c6.113,0,11.563-0.917,16.348-2.752c4.783-1.834,8.974-4.549,12.572-8.146
		c0.791-0.791,1.762-1.654,2.913-2.59c3.524-1.438,6.653-3.292,9.388-5.558c2.733-2.267,5.432-4.479,8.094-6.637
		c0-0.359-1.439-3.669-4.316-9.928c-0.095,0.083-0.18,0.16-0.272,0.242c-0.143-0.311-0.286-0.624-0.437-0.951
		c-0.095,0.083-0.18,0.16-0.272,0.242c-0.143-0.311-0.286-0.624-0.437-0.951c-0.095,0.083-0.18,0.16-0.273,0.243"/>
	<path d="M8.073,59.134c0.122,0.122,0.259,0.237,0.408,0.347c0.086,0.126,0.187,0.247,0.302,0.362
		c0.122,0.122,0.257,0.236,0.405,0.346"/>
	<path d="M7.063,58.063"/>
	<path d="M22.964,74.024c0.122,0.121,0.257,0.236,0.405,0.345c0.087,0.127,0.188,0.248,0.304,0.364
		c0.027,0.027,0.063,0.052,0.092,0.079c1.82-2.968,3.633-6.078,5.438-9.333c0.574-0.791,1.223-1.834,1.941-3.129
		s1.512-2.914,2.375-4.856c0-0.432-0.108-0.755-0.324-0.971s-0.576-0.324-1.079-0.324c-0.432,0-1.134,0.126-2.104,0.378
		c-0.971,0.252-1.709,0.377-2.212,0.377H14.311c-0.576,0-1.529-0.036-2.859-0.108c-1.332-0.071-2.284-0.108-2.859-0.108
		c-0.72-0.359-1.386-0.665-1.996-0.917C5.984,55.57,5.391,55.3,4.815,55.012c-0.544-0.181-1.001-0.402-1.388-0.655
		c0.106,0.184,0.229,0.36,0.392,0.522c0.122,0.122,0.258,0.237,0.407,0.347c0.087,0.126,0.187,0.247,0.302,0.362
		c0.122,0.122,0.258,0.236,0.406,0.346c0.087,0.126,0.188,0.248,0.303,0.363c0.122,0.122,0.258,0.236,0.406,0.346
		c0.087,0.127,0.188,0.248,0.304,0.364c0.121,0.121,0.256,0.235,0.404,0.344"/>
	<path d="M22.255,73.315"/>
	<path d="M21.546,72.606"/>
	<path d="M20.837,71.897"/>
	<path d="M20.127,71.188"/>
	<path d="M2.311,123.198"/>
	<path d="M1.602,122.489"/>
	<path d="M0.893,121.78"/>
	<path d="M17.912,138.799c0.162,0.393,0.315,0.764,0.451,1.09c0.088-0.133,0.172-0.254,0.258-0.381
		c0.162,0.394,0.314,0.764,0.451,1.09c0.07-0.105,0.137-0.203,0.205-0.303c-0.283-1.275-0.433-2.718-0.433-4.35
		c0-4.172,0.143-7.787,0.432-10.846c0.287-3.057,0.756-5.521,1.404-7.392c0.288-0.575,0.504-1.079,0.648-1.511
		c0-0.719,0.108-1.689,0.324-2.914c0.216-1.222,0.469-2.66,0.757-4.316c0.432-2.805,0.899-5.611,1.405-8.416
		c0.79-1.727,1.618-3.562,2.481-5.504c0-0.359-0.288-0.684-0.863-0.971l-1.079,0.646c-1.079,1.727-2.484,3.545-4.211,5.45
		c-1.727,1.907-3.777,3.903-6.152,5.989c-3.67,3.525-7.412,7.086-11.225,10.683c-0.217,0.36-0.613,0.9-1.188,1.618
		c-0.477,0.596-1.005,1.32-1.579,2.16"/>
	<path d="M17.202,138.089"/>
	<path d="M16.235,137.762"/>
	<path d="M3.021,123.908"/>
</g>
</svg>
